<?xml version="1.0" encoding="UTF-8"?>
<svg id="Lager_1" xmlns="http://www.w3.org/2000/svg" version="1.1" viewBox="0 0 1920 1080">
  <!-- Generator: Adobe Illustrator 29.5.1, SVG Export Plug-In . SVG Version: 2.1.0 Build 141)  -->
  <defs>
    <style>
      .st0 {
        fill: #fff;
      }

      .st1 {
        fill: #0372c1;
      }

      .st2 {
        fill: #d7d7ff;
      }
    </style>
  </defs>
  <rect class="st0" x="-192" y="-108" width="2304" height="1296"/>
  <rect class="st2" x="-192" y="-108" width="2304" height="1296"/>
  <path class="st1" d="M2210.8,459.4l-57.4-17.7c-57.4-17.9-172.3-53.2-284.9-44-112.9,9.2-223.3,63.4-335.5,89-112,25.6-225.6,22.7-339,12.5-113.6-10.2-226.8-28.1-339.7-19.7-112.7,8.1-224.9,42.3-338.3,30.2-113.7-11.9-228.4-70.3-341.5-67.6-112.9,2.6-224,65.8-279.5,97.6l-55.5,31.6-15.8-413.6,56.7-2.2c56.7-2.2,170-6.5,282.8-10.8,113.1-4.3,225.4-8.6,338.4-12.9,112.8-4.3,226.2-8.6,339-13,113.1-4.3,225.4-8.6,338.4-12.9s226.2-8.6,339-13c113.1-4.3,225.4-8.6,338.4-12.9,112.8-4.3,226.2-8.6,282.8-10.8l56.7-2.2,15,392.3h0l-.1.1Z"/>
  <path class="st1" d="M1934.6,270.3l-52.9-22.9c-52.9-23.1-158.7-68.9-264-63.3-105.5,5.7-210.3,63.3-315.9,87.9-105.3,24.6-211.1,16.2-316.4-.5-105.5-16.7-210.3-42.4-315.9-37.7-105.3,4.4-211.1,38.9-316.4,19.9-105.5-18.7-210.3-91.1-315.9-93.1-105.3-2-211.1,66-264,100.2l-52.9,34V-182.7H1934.6v453Z"/>
</svg>