<?xml version="1.0" encoding="UTF-8"?>
<svg id="Lager_1" xmlns="http://www.w3.org/2000/svg" version="1.1" viewBox="0 0 1125.25 1080">
  <!-- Generator: Adobe Illustrator 29.5.1, SVG Export Plug-In . SVG Version: 2.1.0 Build 141)  -->
  <defs>
    <style>
      .st0 {
        fill: #fff;
      }

      .st1 {
        fill: #0372c1;
      }

      .st2 {
        fill: #d7d7ff;
      }
    </style>
  </defs>
  <rect class="st0" x="-192" y="-108" width="2304" height="1296"/>
  <rect class="st2" x="-192" y="-108" width="2304" height="1296"/>
  <g>
    <path class="st1" d="M568.54,436.38l-17.91-5.52c-17.91-5.59-53.76-16.6-88.9-13.73-35.23,2.87-69.68,19.78-104.68,27.77-34.95,7.99-70.39,7.08-105.78,3.9-35.45-3.18-70.77-8.77-106-6.15-35.17,2.53-70.17,13.2-105.56,9.42-35.48-3.71-71.27-21.94-106.56-21.09-35.23.81-69.89,20.53-87.21,30.45l-17.32,9.86-4.93-129.05,17.69-.69c17.69-.69,53.04-2.03,88.24-3.37,35.29-1.34,70.33-2.68,105.59-4.03,35.2-1.34,70.58-2.68,105.78-4.06,35.29-1.34,70.33-2.68,105.59-4.03s70.58-2.68,105.78-4.06c35.29-1.34,70.33-2.68,105.59-4.03,35.2-1.34,70.58-2.68,88.24-3.37l17.69-.69,4.68,122.41h0l-.03.03h0Z"/>
    <path class="st1" d="M1934.6,200.3l-52.9-22.9c-52.9-23.1-158.7-68.9-264-63.3-105.5,5.7-210.3,63.3-315.9,87.9-105.3,24.6-211.1,16.2-316.4-.5-105.5-16.7-210.3-42.4-315.9-37.7-105.3,4.4-211.1,38.9-316.4,19.9-105.5-18.7-210.3-91.1-315.9-93.1-105.3-2-211.1,66-264,100.2l-52.9,34V-252.7H1934.6V200.3Z"/>
    <path class="st1" d="M1121.7,440l3.73-97.75-17.69-.69c-17.69-.69-53.04-2.03-88.24-3.37-35.29-1.34-70.33-2.68-105.59-4.03-35.2-1.34-70.58-2.68-105.78-4.06-35.29-1.34-70.33-2.68-105.59-4.03s-70.58-2.68-105.78-4.06c-35.29-1.34-70.33-2.68-105.59-4.03-35.2-1.34-70.58-2.68-88.24-3.37l-17.69-.69-4.68,122.41h0l.03.03h0s17.91-5.52,17.91-5.52c17.91-5.59,53.76-16.6,88.9-13.73,35.23,2.87,69.68,19.78,104.68,27.77,34.95,7.99,70.39,7.08,105.78,3.9,35.45-3.18,70.77-8.77,106-6.15,35.17,2.53,70.17,13.2,105.56,9.42,21.18-2.22,42.47-9.6,63.69-15.02"/>
    <path class="st1" d="M656.32,434.01l-3.45-90.44,17.69-.69c17.69-.69,53.04-2.03,88.24-3.37,35.29-1.34,70.33-2.68,105.59-4.03,35.2-1.34,70.58-2.68,105.78-4.06,35.29-1.34,70.33-2.68,105.59-4.03s70.58-2.68,105.78-4.06c35.29-1.34,70.33-2.68,105.59-4.03,35.2-1.34,70.58-2.68,88.24-3.37l17.69-.69,4.68,122.41h0l-.03.03h0s-17.91-5.52-17.91-5.52c-17.91-5.59-53.76-16.6-88.9-13.73-35.23,2.87-69.68,19.78-104.68,27.77-34.95,7.99-70.39,7.08-105.78,3.9-35.45-3.18-70.77-8.77-106-6.15-35.17,2.53-70.17,13.2-105.56,9.42-35.48-3.71-71.27-21.94-106.56-21.09-.77.02-1.54.04-2.31.08"/>
    <path class="st1" d="M1189.76,437.71l17.91-5.52c17.91-5.59,53.76-16.6,88.9-13.73,35.23,2.87,69.68,19.78,104.68,27.77,34.95,7.99,70.39,7.08,105.78,3.9,35.45-3.18,70.77-8.77,106-6.15,35.17,2.53,70.17,13.2,105.56,9.42,35.48-3.71,71.27-21.94,106.56-21.09,35.23.81,69.89,20.53,87.21,30.45l17.32,9.86,4.93-129.05-17.69-.69c-17.69-.69-53.04-2.03-88.24-3.37-35.29-1.34-70.33-2.68-105.59-4.03-35.2-1.34-70.58-2.68-105.78-4.06-35.29-1.34-70.33-2.68-105.59-4.03s-70.58-2.68-105.78-4.06c-35.29-1.34-70.33-2.68-105.59-4.03-35.2-1.34-70.58-2.68-88.24-3.37l-17.69-.69-4.68,122.41h0l.03.03h0Z"/>
    <path class="st1" d="M1946.48-42.54l-52.9,22.9c-52.9,23.1-158.7,68.9-264,63.3-105.5-5.7-210.3-63.3-315.9-87.9-105.3-24.6-211.1-16.2-316.4.5C891.78-27.04,786.98-1.34,681.38-6.04c-105.3-4.4-211.1-38.9-316.4-19.9C259.48-7.24,154.68,65.16,49.08,67.16-56.22,69.16-162.02,1.16-214.92-33.04l-52.9-34v477.5H1946.48V-42.54Z"/>
    <path class="st1" d="M973.11,437.06c14.33-3.66,28.64-6.41,42.86-6.08"/>
    <path class="st1" d="M636.68,443.49l-.36-9.48"/>
    <path class="st1" d="M740.02,432.39c-11.4.53-22.7,2.97-33.34,6.36"/>
  </g>
</svg>